<svg xmlns="http://www.w3.org/2000/svg" viewBox="0 0 600 800">
  <defs>
    <linearGradient id="bg2" x1="0" y1="0" x2="1" y2="1">
      <stop offset="0" stop-color="#faf8f5"/>
      <stop offset="1" stop-color="#f0e8d8"/>
    </linearGradient>
    <linearGradient id="gold2" x1="0" y1="0" x2="1" y2="1">
      <stop offset="0" stop-color="#e2c57e"/>
      <stop offset="1" stop-color="#b98a5e"/>
    </linearGradient>
  </defs>
  <rect fill="url(#bg2)" width="600" height="800" rx="24"/>
  <!-- Nail polish bottles row -->
  <rect x="120" y="140" width="50" height="70" rx="8" fill="rgba(226,197,126,0.15)" stroke="rgba(201,169,97,0.3)" stroke-width="1.5"/>
  <rect x="128" y="115" width="34" height="30" rx="5" fill="rgba(226,197,126,0.2)" stroke="rgba(201,169,97,0.3)" stroke-width="1.5"/>
  <rect x="136" y="95" width="18" height="25" rx="4" fill="rgba(226,197,126,0.25)" stroke="rgba(201,169,97,0.35)" stroke-width="1.5"/>
  <rect x="140" y="75" width="10" height="22" rx="3" fill="url(#gold2)" opacity="0.6"/>
  <rect x="210" y="120" width="45" height="65" rx="8" fill="rgba(185,138,94,0.15)" stroke="rgba(201,169,97,0.3)" stroke-width="1.5"/>
  <rect x="217" y="98" width="31" height="28" rx="5" fill="rgba(185,138,94,0.2)" stroke="rgba(201,169,97,0.3)" stroke-width="1.5"/>
  <rect x="224" y="80" width="17" height="22" rx="4" fill="rgba(185,138,94,0.25)" stroke="rgba(201,169,97,0.35)" stroke-width="1.5"/>
  <rect x="228" y="62" width="9" height="20" rx="3" fill="url(#gold2)" opacity="0.5"/>
  <rect x="300" y="150" width="55" height="75" rx="8" fill="rgba(201,169,97,0.12)" stroke="rgba(201,169,97,0.3)" stroke-width="1.5"/>
  <rect x="308" y="125" width="38" height="32" rx="5" fill="rgba(201,169,97,0.18)" stroke="rgba(201,169,97,0.3)" stroke-width="1.5"/>
  <rect x="316" y="100" width="20" height="28" rx="4" fill="rgba(201,169,97,0.22)" stroke="rgba(201,169,97,0.35)" stroke-width="1.5"/>
  <rect x="320" y="78" width="12" height="24" rx="3" fill="url(#gold2)" opacity="0.7"/>
  <rect x="390" y="130" width="48" height="68" rx="8" fill="rgba(226,197,126,0.15)" stroke="rgba(201,169,97,0.3)" stroke-width="1.5"/>
  <rect x="397" y="108" width="33" height="28" rx="5" fill="rgba(226,197,126,0.2)" stroke="rgba(201,169,97,0.3)" stroke-width="1.5"/>
  <rect x="404" y="88" width="18" height="24" rx="4" fill="rgba(226,197,126,0.25)" stroke="rgba(201,169,97,0.35)" stroke-width="1.5"/>
  <rect x="408" y="70" width="10" height="20" rx="3" fill="url(#gold2)" opacity="0.55"/>
  <!-- Hand silhouette -->
  <path d="M230 580 C220 500 200 410 210 360 C215 330 230 320 240 330 C245 340 240 360 235 380 C240 350 255 320 265 325 C275 330 270 360 260 390 C265 360 280 330 295 335 C305 340 300 370 285 410 C280 430 270 470 265 510 L260 580 Z" fill="rgba(201,169,97,0.1)" stroke="rgba(201,169,97,0.2)" stroke-width="1.5"/>
  <!-- Nail file -->
  <rect x="380" y="300" width="140" height="18" rx="9" fill="rgba(201,169,97,0.1)" stroke="rgba(201,169,97,0.25)" stroke-width="1"/>
  <rect x="380" y="300" width="70" height="18" rx="9" fill="rgba(201,169,97,0.15)"/>
  <!-- Decorative sparkles -->
  <circle cx="150" cy="300" r="5" fill="url(#gold2)" opacity="0.3"/>
  <circle cx="170" cy="280" r="3" fill="url(#gold2)" opacity="0.25"/>
  <circle cx="460" cy="260" r="4" fill="url(#gold2)" opacity="0.3"/>
  <circle cx="480" cy="280" r="3" fill="url(#gold2)" opacity="0.2"/>
  <circle cx="100" cy="400" r="4" fill="url(#gold2)" opacity="0.25"/>
  <circle cx="500" cy="400" r="5" fill="url(#gold2)" opacity="0.2"/>
  <circle cx="480" cy="380" r="3" fill="url(#gold2)" opacity="0.3"/>
  <!-- Text -->
  <text x="300" y="700" text-anchor="middle" font-family="Georgia,serif" font-size="20" fill="#b98a5e">Фото мастера</text>
  <text x="300" y="728" text-anchor="middle" font-family="Arial,sans-serif" font-size="12" fill="#9a8a74">Замените на своё фото</text>
</svg>